<svg viewBox="0 0 1024 1024" xmlns="http://www.w3.org/2000/svg"><path d="M921.6 880.64a61.44 61.44 0 0 1 5.89824 122.59328L921.6 1003.52H102.4a61.44 61.44 0 0 1-5.89824-122.59328L102.4 880.64h819.2zM512 20.48a61.44 61.44 0 0 1 61.15328 55.54176L573.44 81.92l-0.04096 527.52384 181.8624-181.8624a61.44 61.44 0 0 1 91.136 82.24768l-4.21888 4.66944-286.72 286.72-0.8192 0.8192a61.80864 61.80864 0 0 1-2.8672 2.53952l3.6864-3.35872a62.09536 62.09536 0 0 1-30.06464 16.50688 64.59392 64.59392 0 0 1-7.49568 1.2288L512 819.2a61.97248 61.97248 0 0 1-35.2256-11.0592 66.51904 66.51904 0 0 1-3.56352-2.70336l-1.024-0.86016a61.80864 61.80864 0 0 1-2.82624-2.58048l-0.8192-0.8192-286.72-286.72a61.44 61.44 0 0 1 82.24768-91.09504l4.66944 4.21888 181.78048 181.8624L450.56 81.92A61.44 61.44 0 0 1 512 20.48z" fill="#8a8a8a"></path></svg>