<svg viewBox="0 0 1024 1024" version="1.1" xmlns="http://www.w3.org/2000/svg"><path d="M832 704l192-223.8-129.4 0c-4.6-55.8-21-108-47-154.6-54.8-98.4-151.6-170.2-266-191.2-1.4-0.2-3-0.6-4.4-0.8-1-0.2-1.8-0.4-2.8-0.4C554.2 129.8 533.2 128 512 128c-0.2 0-0.6 0-0.8 0 0 0 0 0 0 0-181.8 0.4-334 127.2-373.4 297.2 0 0 0 0.2 0 0.2-0.6 2.2-1 4.4-1.4 6.6-0.2 1-0.4 1.8-0.6 2.8-0.2 1.4-0.6 2.8-0.8 4.2-0.4 1.8-0.6 3.4-1 5.2-0.2 0.8-0.2 1.4-0.4 2.2-0.4 2.4-0.8 4.8-1.2 7.2 0 0.2 0 0.2 0 0.4-2 12.6-3.2 25.4-3.8 38.2 0 0.6 0 1.2 0 1.6-0.2 2.8-0.2 5.4-0.4 8.2 0 3.2-0.2 6.6-0.2 10 0 3.4 0 6.6 0.2 10 0 2.8 0.2 5.4 0.4 8.2 0 0.6 0 1.2 0 1.8 0.6 13 2 25.8 3.8 38.2 0 0.2 0 0.2 0 0.4 0.4 2.4 0.8 4.8 1.2 7.2 0.2 0.8 0.2 1.4 0.4 2.2 0.4 1.8 0.6 3.6 1 5.2 0.2 1.4 0.6 2.8 0.8 4.2 0.2 1 0.4 2 0.6 2.8 0.4 2.2 1 4.4 1.4 6.4 0 0 0 0.2 0 0.2 39.4 170 192.2 296.8 374.2 297.2 85.8-0.2 166.2-28.4 233.8-81.4l15-11.8-86.4-92.4-12.4 9.2c-44.2 32.6-95 48.4-150 48.4-141.2 0-256-114-256-256 0-142 114.8-256 256-256 132.8 0 245.6 93.2 259 224L624 480 832 704z" fill="#8a8a8a"></path></svg>