<svg viewBox="0 0 1024 1024" version="1.1" xmlns="http://www.w3.org/2000/svg"><path d="M804.57143 621.714286q0 14.848-10.825143 25.746286l-256 256q-10.825143 10.825143-25.746286 10.825143t-25.746286-10.825143l-256-256q-10.825143-10.825143-10.825143-25.746286t10.825143-25.746286 25.746286-10.825143l512 0q14.848 0 25.746286 10.825143t10.825143 25.746286z" fill="#8a8a8a"></path><path d="M804.57143 402.285714q0 14.848-10.825143 25.746286t-25.746286 10.825143l-512 0q-14.848 0-25.746286-10.825143t-10.825143-25.746286 10.825143-25.746286l256-256q10.825143-10.825143 25.746286-10.825143t25.746286 10.825143l256 256q10.825143 10.825143 10.825143 25.746286z" fill="#8a8a8a"></path></svg>