<svg viewBox="0 0 1024 1024" xmlns="http://www.w3.org/2000/svg"><path d="M512 204.8a61.97248 61.97248 0 0 1 35.2256 11.0592 66.51904 66.51904 0 0 1 3.56352 2.70336l1.024 0.86016 2.82624 2.58048 0.8192 0.8192 286.72 286.72a61.44 61.44 0 0 1-82.24768 91.09504l-4.66944-4.21888-181.8624-181.90336L573.44 942.08a61.44 61.44 0 0 1-122.59328 5.89824L450.56 942.08l-0.04096-527.5648-181.78048 181.8624a61.44 61.44 0 0 1-82.24768 4.25984l-4.66944-4.21888a61.44 61.44 0 0 1-4.21888-82.24768l4.21888-4.66944 286.72-286.72 0.8192-0.8192 2.8672-2.53952-3.6864 3.35872a62.09536 62.09536 0 0 1 30.06464-16.50688A64.59392 64.59392 0 0 1 512 204.8zM921.6 20.48a61.44 61.44 0 0 1 5.89824 122.59328L921.6 143.36H102.4A61.44 61.44 0 0 1 96.50176 20.76672L102.4 20.48h819.2z" fill="#8a8a8a"></path></svg>